:FULLY-SPECIFIED
:FORCE-ALL-JOINTS-BE-3DOF
:DEGREES
136
root 7.1882 16.4545 -26.2698 0.385475 20.3252 -1.83628
lfemur -21.0322 15.9389 -13.6525
ltibia 36.708 0 0
lfoot -12.485 7.68777 0
ltoes 27.5748 0 0
rfemur -52.6982 -20.6145 12.6331
rtibia 98.7158 0 0
rfoot 21.9943 12.5529 0
rtoes -6.73551 0 0
lowerback 6.02043 -3.67918 -2.94889
upperback 0.942059 -5.14027 0.499385
thorax -1.90245 -2.54766 2.69127
lowerneck -10.9513 -4.18381 -0.194291
upperneck 0.591 -5.67762 3.44917
head 2.18125 -2.71707 0.863907
lclavicle 3.39381e-014 -9.75215e-015 0
lhumerus -42.1161 -27.1537 98.4114
lradius 48.5696 0 0
lwrist 13.0973 0 0
lhand 22.5939 15.3304 0
lfingers 7.12502 0 0
lthumb 46.7937 36.889 0
rclavicle 3.39381e-014 -9.75215e-015 0
rhumerus -51.3285 -11.5621 -72.9047
rradius 80.5623 0 0
rwrist -2.87345 0 0
rhand 0.571712 -8.02048 0
rfingers 7.12502 0 0
rthumb 26.0744 -268.505 0
137
root 7.18028 16.4476 -26.2568 0.284237 20.6136 -1.78026
lfemur -20.8626 16.5489 -13.7288
ltibia 36.6403 0 0
lfoot -12.3034 8.04511 0
ltoes 27.8602 0 0
rfemur -53.2684 -20.9801 12.8188
rtibia 99.3655 0 0
rfoot 22.0521 12.2865 0
rtoes -6.94546 0 0
lowerback 6.1702 -3.85056 -3.05615
upperback 1.00667 -5.37735 0.457085
thorax -1.9029 -2.66571 2.7262
lowerneck -10.9662 -4.16138 -0.271877
upperneck 0.630571 -5.64261 3.52581
head 2.20234 -2.69702 0.902365
lclavicle 3.42945e-014 -9.21037e-015 0
lhumerus -41.9654 -27.7214 98.558
lradius 48.563 0 0
lwrist 13.0071 0 0
lhand 23.0471 15.5221 0
lfingers 7.12502 0 0
lthumb 47.2152 36.915 0
rclavicle 3.42945e-014 -9.21037e-015 0
rhumerus -51.5853 -11.9215 -72.9443
rradius 81.4669 0 0
rwrist -2.90917 0 0
rhand 1.15297 -7.85312 0
rfingers 7.12502 0 0
rthumb 26.6318 -275.327 0
138
root 7.17237 16.4407 -26.2439 0.182998 20.902 -1.72424
lfemur -20.693 17.1589 -13.8052
ltibia 36.5726 0 0
lfoot -12.1218 8.40244 0
ltoes 28.1456 0 0
rfemur -53.8386 -21.3457 13.0046
rtibia 100.015 0 0
rfoot 22.1098 12.0202 0
rtoes -7.15542 0 0
lowerback 6.31998 -4.02194 -3.1634
upperback 1.07129 -5.61443 0.414786
thorax -1.90335 -2.78376 2.76113
lowerneck -10.9811 -4.13894 -0.349463
upperneck 0.670142 -5.60761 3.60245
head 2.22343 -2.67696 0.940823
lclavicle 3.46509e-014 -8.66858e-015 0
lhumerus -41.8147 -28.2891 98.7047
lradius 48.5564 0 0
lwrist 12.9168 0 0
lhand 23.5003 15.7137 0
lfingers 7.12502 0 0
lthumb 47.6367 36.941 0
rclavicle 3.46509e-014 -8.66858e-015 0
rhumerus -51.8421 -12.281 -72.984
rradius 82.3715 0 0
rwrist -2.9449 0 0
rhand 1.73422 -7.68576 0
rfingers 7.12502 0 0
rthumb 27.1891 -282.149 0
139
root 7.16445 16.4338 -26.2309 0.0817594 21.1904 -1.66822
lfemur -20.5234 17.7688 -13.8815
ltibia 36.5049 0 0
lfoot -11.9402 8.75978 0
ltoes 28.4311 0 0
rfemur -54.4089 -21.7113 13.1904
rtibia 100.665 0 0
rfoot 22.1676 11.7538 0
rtoes -7.36537 0 0
lowerback 6.46975 -4.19331 -3.27066
upperback 1.1359 -5.85151 0.372487
thorax -1.90379 -2.90182 2.79606
lowerneck -10.996 -4.1165 -0.427049
upperneck 0.709713 -5.5726 3.67909
head 2.24452 -2.65691 0.979281
lclavicle 3.50073e-014 -8.12679e-015 0
lhumerus -41.664 -28.8568 98.8513
lradius 48.5498 0 0
lwrist 12.8265 0 0
lhand 23.9535 15.9053 0
lfingers 7.12502 0 0
lthumb 48.0583 36.967 0
rclavicle 3.50073e-014 -8.12679e-015 0
rhumerus -52.0989 -12.6404 -73.0236
rradius 83.2762 0 0
rwrist -2.98062 0 0
rhand 2.31548 -7.51839 0
rfingers 7.12502 0 0
rthumb 27.7465 -288.97 0
140
root 7.15654 16.4268 -26.2179 -0.0194792 21.4788 -1.6122
lfemur -20.3538 18.3788 -13.9578
ltibia 36.4372 0 0
lfoot -11.7586 9.11711 0
ltoes 28.7165 0 0
rfemur -54.9791 -22.077 13.3761
rtibia 101.315 0 0
rfoot 22.2254 11.4874 0
rtoes -7.57533 0 0
lowerback 6.61953 -4.36469 -3.37792
upperback 1.20052 -6.08859 0.330188
thorax -1.90424 -3.01987 2.83098
lowerneck -11.0109 -4.09407 -0.504635
upperneck 0.749284 -5.53759 3.75572
head 2.26561 -2.63685 1.01774
lclavicle 3.53637e-014 -7.58501e-015 0
lhumerus -41.5133 -29.4245 98.998
lradius 48.5432 0 0
lwrist 12.7363 0 0
lhand 24.4067 16.097 0
lfingers 7.12502 0 0
lthumb 48.4798 36.993 0
rclavicle 3.53637e-014 -7.58501e-015 0
rhumerus -52.3556 -12.9998 -73.0633
rradius 84.1808 0 0
rwrist -3.01635 0 0
rhand 2.89673 -7.35103 0
rfingers 7.12502 0 0
rthumb 28.3038 -295.792 0
141
root 7.14862 16.4199 -26.2049 -0.120718 21.7672 -1.55618
lfemur -20.1842 18.9888 -14.0341
ltibia 36.3695 0 0
lfoot -11.5771 9.47445 0
ltoes 29.0019 0 0
rfemur -55.5493 -22.4426 13.5619
rtibia 101.964 0 0
rfoot 22.2831 11.221 0
rtoes -7.78528 0 0
lowerback 6.7693 -4.53607 -3.48518
upperback 1.26513 -6.32567 0.287888
thorax -1.90468 -3.13792 2.86591
lowerneck -11.0258 -4.07163 -0.582221
upperneck 0.788855 -5.50258 3.83236
head 2.2867 -2.6168 1.0562
lclavicle 3.57201e-014 -7.04322e-015 0
lhumerus -41.3626 -29.9922 99.1446
lradius 48.5366 0 0
lwrist 12.646 0 0
lhand 24.8599 16.2886 0
lfingers 7.12502 0 0
lthumb 48.9013 37.019 0
rclavicle 3.57201e-014 -7.04322e-015 0
rhumerus -52.6124 -13.3592 -73.1029
rradius 85.0854 0 0
rwrist -3.05208 0 0
rhand 3.47799 -7.18366 0
rfingers 7.12502 0 0
rthumb 28.8612 -302.614 0
142
root 7.1407 16.413 -26.1919 -0.221956 22.0556 -1.50016
lfemur -20.0146 19.5988 -14.1104
ltibia 36.3018 0 0
lfoot -11.3955 9.83178 0
ltoes 29.2874 0 0
rfemur -56.1195 -22.8082 13.7477
rtibia 102.614 0 0
rfoot 22.3409 10.9546 0
rtoes -7.99524 0 0
lowerback 6.91908 -4.70745 -3.59244
upperback 1.32975 -6.56275 0.245589
thorax -1.90513 -3.25597 2.90084
lowerneck -11.0407 -4.04919 -0.659807
upperneck 0.828427 -5.46757 3.909
head 2.3078 -2.59675 1.09465
lclavicle 3.60765e-014 -6.50144e-015 0
lhumerus -41.2119 -30.5599 99.2913
lradius 48.53 0 0
lwrist 12.5557 0 0
lhand 25.3131 16.4803 0
lfingers 7.12502 0 0
lthumb 49.3228 37.045 0
rclavicle 3.60765e-014 -6.50144e-015 0
rhumerus -52.8692 -13.7186 -73.1425
rradius 85.99 0 0
rwrist -3.0878 0 0
rhand 4.05924 -7.0163 0
rfingers 7.12502 0 0
rthumb 29.4185 -309.436 0
143
root 7.13279 16.4061 -26.179 -0.323195 22.344 -1.44414
lfemur -19.845 20.2088 -14.1868
ltibia 36.2341 0 0
lfoot -11.2139 10.1891 0
ltoes 29.5728 0 0
rfemur -56.6897 -23.1738 13.9334
rtibia 103.264 0 0
rfoot 22.3987 10.6882 0
rtoes -8.20519 0 0
lowerback 7.06885 -4.87883 -3.69969
upperback 1.39436 -6.79983 0.20329
thorax -1.90557 -3.37402 2.93577
lowerneck -11.0556 -4.02676 -0.737393
upperneck 0.867998 -5.43257 3.98564
head 2.32889 -2.57669 1.13311
lclavicle 3.64329e-014 -5.95965e-015 0
lhumerus -41.0612 -31.1276 99.4379
lradius 48.5234 0 0
lwrist 12.4655 0 0
lhand 25.7663 16.6719 0
lfingers 7.12502 0 0
lthumb 49.7444 37.071 0
rclavicle 3.64329e-014 -5.95965e-015 0
rhumerus -53.126 -14.078 -73.1822
rradius 86.8947 0 0
rwrist -3.12353 0 0
rhand 4.6405 -6.84894 0
rfingers 7.12502 0 0
rthumb 29.9759 -316.258 0
144
root 7.12487 16.3991 -26.166 -0.424434 22.6324 -1.38812
lfemur -19.6754 20.8188 -14.2631
ltibia 36.1664 0 0
lfoot -11.0323 10.5465 0
ltoes 29.8582 0 0
rfemur -57.2599 -23.5395 14.1192
rtibia 103.914 0 0
rfoot 22.4564 10.4218 0
rtoes -8.41515 0 0
lowerback 7.21862 -5.05021 -3.80695
upperback 1.45897 -7.03691 0.160991
thorax -1.90602 -3.49207 2.9707
lowerneck -11.0705 -4.00432 -0.814979
upperneck 0.907569 -5.39756 4.06228
head 2.34998 -2.55664 1.17157
lclavicle 3.67893e-014 -5.41786e-015 0
lhumerus -40.9105 -31.6953 99.5845
lradius 48.5168 0 0
lwrist 12.3752 0 0
lhand 26.2195 16.8636 0
lfingers 7.12502 0 0
lthumb 50.1659 37.097 0
rclavicle 3.67893e-014 -5.41786e-015 0
rhumerus -53.3828 -14.4374 -73.2218
rradius 87.7993 0 0
rwrist -3.15925 0 0
rhand 5.22175 -6.68157 0
rfingers 7.12502 0 0
rthumb 30.5332 -323.08 0
145
root 7.11695 16.3922 -26.153 -0.525672 22.9208 -1.33209
lfemur -19.5058 21.4288 -14.3394
ltibia 36.0987 0 0
lfoot -10.8507 10.9038 0
ltoes 30.1437 0 0
rfemur -57.8302 -23.9051 14.305
rtibia 104.563 0 0
rfoot 22.5142 10.1554 0
rtoes -8.6251 0 0
lowerback 7.3684 -5.22158 -3.91421
upperback 1.52359 -7.27399 0.118691
thorax -1.90646 -3.61012 3.00563
lowerneck -11.0854 -3.98188 -0.892565
upperneck 0.94714 -5.36255 4.13892
head 2.37107 -2.53659 1.21003
lclavicle 3.71457e-014 -4.87608e-015 0
lhumerus -40.7598 -32.263 99.7312
lradius 48.5102 0 0
lwrist 12.2849 0 0
lhand 26.6726 17.0552 0
lfingers 7.12502 0 0
lthumb 50.5874 37.123 0
rclavicle 3.71457e-014 -4.87608e-015 0
rhumerus -53.6396 -14.7968 -73.2614
rradius 88.7039 0 0
rwrist -3.19498 0 0
rhand 5.80301 -6.51421 0
rfingers 7.12502 0 0
rthumb 31.0906 -329.901 0
146
root 7.10904 16.3853 -26.14 -0.626911 23.2092 -1.27607
lfemur -19.3362 22.0388 -14.4157
ltibia 36.0311 0 0
lfoot -10.6691 11.2611 0
ltoes 30.4291 0 0
rfemur -58.4004 -24.2707 14.4908
rtibia 105.213 0 0
rfoot 22.572 9.88901 0
rtoes -8.83506 0 0
lowerback 7.51817 -5.39296 -4.02147
upperback 1.5882 -7.51107 0.076392
thorax -1.90691 -3.72817 3.04055
lowerneck -11.1002 -3.95944 -0.970151
upperneck 0.986711 -5.32754 4.21556
head 2.39216 -2.51653 1.24849
lclavicle 3.75021e-014 -4.33429e-015 0
lhumerus -40.6091 -32.8307 99.8778
lradius 48.5035 0 0
lwrist 12.1946 0 0
lhand 27.1258 17.2468 0
lfingers 7.12502 0 0
lthumb 51.009 37.149 0
rclavicle 3.75021e-014 -4.33429e-015 0
rhumerus -53.8963 -15.1562 -73.3011
rradius 89.6086 0 0
rwrist -3.2307 0 0
rhand 6.38426 -6.34684 0
rfingers 7.12502 0 0
rthumb 31.6479 -336.723 0
147
root 7.10112 16.3784 -26.127 -0.72815 23.4976 -1.22005
lfemur -19.1666 22.6488 -14.492
ltibia 35.9634 0 0
lfoot -10.4875 11.6185 0
ltoes 30.7146 0 0
rfemur -58.9706 -24.6363 14.6765
rtibia 105.863 0 0
rfoot 22.6297 9.62262 0
rtoes -9.04501 0 0
lowerback 7.66795 -5.56434 -4.12872
upperback 1.65282 -7.74815 0.0340928
thorax -1.90735 -3.84622 3.07548
lowerneck -11.1151 -3.93701 -1.04774
upperneck 1.02628 -5.29253 4.2922
head 2.41325 -2.49648 1.28694
lclavicle 3.78585e-014 -3.7925e-015 0
lhumerus -40.4584 -33.3984 100.024
lradius 48.4969 0 0
lwrist 12.1044 0 0
lhand 27.579 17.4385 0
lfingers 7.12502 0 0
lthumb 51.4305 37.175 0
rclavicle 3.78585e-014 -3.7925e-015 0
rhumerus -54.1531 -15.5156 -73.3407
rradius 90.5132 0 0
rwrist -3.26643 0 0
rhand 6.96552 -6.17948 0
rfingers 7.12502 0 0
rthumb 32.2053 -343.545 0
148
root 7.09321 16.3714 -26.1141 -0.829388 23.7861 -1.16403
lfemur -18.997 23.2588 -14.5684
ltibia 35.8957 0 0
lfoot -10.3059 11.9758 0
ltoes 31 0 0
rfemur -59.5408 -25.002 14.8623
rtibia 106.513 0 0
rfoot 22.6875 9.35623 0
rtoes -9.25497 0 0
lowerback 7.81772 -5.73572 -4.23598
upperback 1.71743 -7.98522 -0.00820647
thorax -1.9078 -3.96427 3.11041
lowerneck -11.13 -3.91457 -1.12532
upperneck 1.06585 -5.25753 4.36884
head 2.43434 -2.47642 1.3254
lclavicle 3.82149e-014 -3.25072e-015 0
lhumerus -40.3077 -33.9661 100.171
lradius 48.4903 0 0
lwrist 12.0141 0 0
lhand 28.0322 17.6301 0
lfingers 7.12502 0 0
lthumb 51.852 37.201 0
rclavicle 3.82149e-014 -3.25072e-015 0
rhumerus -54.4099 -15.875 -73.3804
rradius 91.4178 0 0
rwrist -3.30216 0 0
rhand 7.54677 -6.01211 0
rfingers 7.12502 0 0
rthumb 32.7626 -350.367 0
149
root 7.08529 16.3645 -26.1011 -0.930627 24.0745 -1.10801
lfemur -18.8274 23.8687 -14.6447
ltibia 35.828 0 0
lfoot -10.1244 12.3331 0
ltoes 31.2854 0 0
rfemur -60.111 -25.3676 15.0481
rtibia 107.162 0 0
rfoot 22.7453 9.08983 0
rtoes -9.46492 0 0
lowerback 7.9675 -5.9071 -4.34324
upperback 1.78205 -8.2223 -0.0505057
thorax -1.90824 -4.08233 3.14534
lowerneck -11.1449 -3.89213 -1.20291
upperneck 1.10542 -5.22252 4.44548
head 2.45543 -2.45637 1.36386
lclavicle 3.85713e-014 -2.70893e-015 0
lhumerus -40.157 -34.5338 100.318
lradius 48.4837 0 0
lwrist 11.9238 0 0
lhand 28.4854 17.8218 0
lfingers 7.12502 0 0
lthumb 52.2736 37.227 0
rclavicle 3.85713e-014 -2.70893e-015 0
rhumerus -54.6667 -16.2344 -73.42
rradius 92.3225 0 0
rwrist -3.33788 0 0
rhand 8.12803 -5.84475 0
rfingers 7.12502 0 0
rthumb 33.32 -357.189 0
